<?xml version="1.0" encoding="utf-8"?>
<!-- Generator: Adobe Illustrator 27.6.1, SVG Export Plug-In . SVG Version: 6.00 Build 0)  -->
<svg version="1.1"
	 id="svg308" xmlns:inkscape="http://www.inkscape.org/namespaces/inkscape" xmlns:sodipodi="http://sodipodi.sourceforge.net/DTD/sodipodi-0.dtd" xmlns:svg="http://www.w3.org/2000/svg"
	 xmlns="http://www.w3.org/2000/svg" xmlns:xlink="http://www.w3.org/1999/xlink" x="0px" y="0px" viewBox="0 0 382.1 382.3"
	 style="enable-background:new 0 0 382.1 382.3;" xml:space="preserve">
<style type="text/css">
	.st0{fill:#00DBF9;}
	.st1{fill:#FFFFFF;fill-opacity:0.9686;}
</style>
<sodipodi:namedview  bordercolor="#666666" borderopacity="1.0" fit-margin-bottom="0" fit-margin-left="0" fit-margin-right="0" fit-margin-top="0" id="namedview310" inkscape:current-layer="layer1" inkscape:cx="257.73052" inkscape:cy="-15.266268" inkscape:document-units="mm" inkscape:pagecheckerboard="0" inkscape:pageopacity="0.0" inkscape:pageshadow="2" inkscape:window-height="847" inkscape:window-maximized="0" inkscape:window-width="1312" inkscape:window-x="0" inkscape:window-y="25" inkscape:zoom="0.55678311" pagecolor="#ffffff" showgrid="false" units="px" width="128mm">
	</sodipodi:namedview>
<circle class="st0" cx="191" cy="191" r="191"/>
<g id="layer1" transform="translate(-62.405331,-31.445475)" inkscape:groupmode="layer" inkscape:label="Layer 1">
	<g id="g61" transform="matrix(0.35277777,0,0,-0.35277777,88.347724,16.006189)">
	</g>
	<g id="g2089" transform="rotate(180,90.504716,62.621057)">
		<path id="path71" class="st1" d="M31.3-22.2c0-36-31.6-56-78-50c-27.3,3.5-54.8,6.3-82.2,9.7c-29.8,3.7-51.3,20.3-52.1,39.9
			c-0.8,19,17.1,35.2,45.6,41.1c2.2,0.5,4.4,1.1,6.7,1.3c29.1,3.5,58.2,7.2,87.4,10.3C1.8,34.7,31.3,13.3,31.3-22.2"/>
		<g id="g73" transform="matrix(0.35277777,0,0,-0.35277777,71.66571,55.403951)">
			<path id="path75" class="st1" d="M-617.4,481.4c-0.4-68.7,56.5-106.8,145.3-97c51.9,5.7,103.7,11.6,155.5,18
				c58.7,7.2,99.5,37.1,102.5,74.2c2.9,35.9-35.3,70-94.2,78.9c-59.4,9-119.3,17.5-179.6,20.7C-571.2,580.6-617.1,544.7-617.4,481.4
				"/>
		</g>
		<g id="g77" transform="matrix(0.35277777,0,0,-0.35277777,106.14198,37.828281)">
			<path id="path79" class="st1" d="M-345.8,619.8c0.3-49.3-40.6-76.7-104.4-69.7c-37.3,4.1-74.6,8.3-111.8,12.9
				c-42.2,5.2-71.5,26.7-73.7,53.3c-2.1,25.8,25.4,50.3,67.7,56.7c42.7,6.4,85.8,12.6,129.1,14.9C-379,691.2-346,665.4-345.8,619.8"
				/>
		</g>
	</g>
</g>
</svg>
